<?xml version="1.0" encoding="UTF-8"?>
<svg xmlns="http://www.w3.org/2000/svg" xmlns:xlink="http://www.w3.org/1999/xlink" width="135px" height="20px" viewBox="0 0 135 20" version="1.1">
<g id="surface10">
<path style=" stroke:none;fill-rule:nonzero;fill:rgb(13.72549%,15.294118%,16.470588%);fill-opacity:1;" d="M 4 0 L 20 0 L 20 20 L 4 20 C 1.332031 20 0 18.667969 0 16 L 0 4 C 0 1.332031 1.332031 0 4 0 Z M 4 0 "/>
<path style=" stroke:none;fill-rule:nonzero;fill:rgb(20.784314%,21.960784%,23.921569%);fill-opacity:1;" d="M 19 0 L 66 0 L 66 20 L 19 20 Z M 19 0 "/>
<path style=" stroke:none;fill-rule:nonzero;fill:rgb(22.745098%,24.313725%,25.882353%);fill-opacity:1;" d="M 65 0 L 132 0 C 134.664062 0 136 1.332031 136 4 L 136 16 C 136 18.667969 134.664062 20 132 20 L 65 20 Z M 65 0 "/>
<path style=" stroke:none;fill-rule:nonzero;fill:rgb(20.784314%,21.960784%,23.921569%);fill-opacity:1;" d="M 4 0 L 20 0 L 20 20 L 4 20 C 1.332031 20 0 18.667969 0 16 L 0 4 C 0 1.332031 1.332031 0 4 0 Z M 4 0 "/>
<path style=" stroke:none;fill-rule:nonzero;fill:rgb(78.823529%,78.823529%,78.823529%);fill-opacity:1;" d="M 28.8125 5.921875 L 28.8125 14.84375 L 27.328125 14.84375 L 27.328125 5.921875 Z M 31.828125 8.6875 L 31.828125 14.84375 L 30.34375 14.84375 L 30.34375 8.6875 Z M 32.03125 6.890625 C 32.03125 7.015625 32.003906 7.136719 31.953125 7.25 C 31.898438 7.367188 31.832031 7.464844 31.75 7.546875 C 31.664062 7.632812 31.5625 7.699219 31.4375 7.75 C 31.320312 7.804688 31.203125 7.828125 31.078125 7.828125 C 30.941406 7.828125 30.816406 7.804688 30.703125 7.75 C 30.597656 7.699219 30.5 7.632812 30.40625 7.546875 C 30.320312 7.464844 30.253906 7.367188 30.203125 7.25 C 30.160156 7.136719 30.140625 7.015625 30.140625 6.890625 C 30.140625 6.765625 30.160156 6.648438 30.203125 6.53125 C 30.253906 6.40625 30.320312 6.304688 30.40625 6.21875 C 30.5 6.136719 30.597656 6.074219 30.703125 6.03125 C 30.816406 5.980469 30.941406 5.953125 31.078125 5.953125 C 31.203125 5.953125 31.320312 5.980469 31.4375 6.03125 C 31.5625 6.074219 31.664062 6.136719 31.75 6.21875 C 31.832031 6.304688 31.898438 6.40625 31.953125 6.53125 C 32.003906 6.648438 32.03125 6.765625 32.03125 6.890625 Z M 34.828125 13.25 C 34.992188 13.449219 35.175781 13.59375 35.375 13.6875 C 35.570312 13.773438 35.78125 13.8125 36 13.8125 C 36.226562 13.8125 36.429688 13.773438 36.609375 13.6875 C 36.796875 13.605469 36.953125 13.476562 37.078125 13.296875 C 37.203125 13.121094 37.296875 12.902344 37.359375 12.640625 C 37.429688 12.371094 37.46875 12.042969 37.46875 11.65625 C 37.46875 10.992188 37.351562 10.507812 37.125 10.203125 C 36.90625 9.902344 36.585938 9.75 36.171875 9.75 C 35.890625 9.75 35.640625 9.820312 35.421875 9.953125 C 35.210938 10.078125 35.015625 10.257812 34.828125 10.484375 Z M 34.828125 9.4375 C 35.078125 9.179688 35.347656 8.976562 35.640625 8.828125 C 35.941406 8.671875 36.289062 8.59375 36.6875 8.59375 C 37.039062 8.59375 37.359375 8.667969 37.640625 8.8125 C 37.929688 8.949219 38.175781 9.148438 38.375 9.40625 C 38.582031 9.667969 38.738281 9.984375 38.84375 10.359375 C 38.945312 10.726562 39 11.140625 39 11.609375 C 39 12.109375 38.9375 12.5625 38.8125 12.96875 C 38.695312 13.375 38.519531 13.726562 38.28125 14.015625 C 38.050781 14.308594 37.773438 14.539062 37.453125 14.703125 C 37.128906 14.859375 36.769531 14.9375 36.375 14.9375 C 36.1875 14.9375 36.015625 14.914062 35.859375 14.875 C 35.703125 14.835938 35.554688 14.78125 35.421875 14.71875 C 35.285156 14.648438 35.160156 14.5625 35.046875 14.46875 C 34.941406 14.375 34.84375 14.265625 34.75 14.140625 L 34.671875 14.5625 C 34.648438 14.667969 34.609375 14.742188 34.546875 14.78125 C 34.492188 14.824219 34.414062 14.84375 34.3125 14.84375 L 33.34375 14.84375 L 33.34375 5.921875 L 34.828125 5.921875 Z M 26.578125 3 "/>
<path style=" stroke:none;fill-rule:nonzero;fill:rgb(78.823529%,78.823529%,78.823529%);fill-opacity:1;" d="M 80.59375 10.265625 C 80.425781 10.058594 80.242188 9.914062 80.046875 9.828125 C 79.847656 9.746094 79.632812 9.703125 79.40625 9.703125 C 79.1875 9.703125 78.984375 9.746094 78.796875 9.828125 C 78.617188 9.914062 78.460938 10.042969 78.328125 10.21875 C 78.203125 10.386719 78.101562 10.601562 78.03125 10.859375 C 77.96875 11.121094 77.9375 11.429688 77.9375 11.78125 C 77.9375 12.148438 77.96875 12.453125 78.03125 12.703125 C 78.09375 12.953125 78.175781 13.15625 78.28125 13.3125 C 78.382812 13.46875 78.515625 13.585938 78.671875 13.65625 C 78.828125 13.71875 79.003906 13.75 79.203125 13.75 C 79.503906 13.75 79.765625 13.6875 79.984375 13.5625 C 80.203125 13.4375 80.40625 13.257812 80.59375 13.015625 Z M 82.078125 5.921875 L 82.078125 14.84375 L 81.171875 14.84375 C 80.972656 14.84375 80.847656 14.757812 80.796875 14.578125 L 80.671875 13.984375 C 80.421875 14.265625 80.132812 14.496094 79.8125 14.671875 C 79.5 14.847656 79.125 14.9375 78.6875 14.9375 C 78.351562 14.9375 78.046875 14.867188 77.765625 14.734375 C 77.484375 14.589844 77.242188 14.386719 77.046875 14.125 C 76.847656 13.855469 76.691406 13.527344 76.578125 13.140625 C 76.460938 12.746094 76.40625 12.292969 76.40625 11.78125 C 76.40625 11.324219 76.46875 10.902344 76.59375 10.515625 C 76.71875 10.121094 76.894531 9.78125 77.125 9.5 C 77.363281 9.210938 77.644531 8.984375 77.96875 8.828125 C 78.289062 8.664062 78.65625 8.578125 79.0625 8.578125 C 79.40625 8.578125 79.695312 8.632812 79.9375 8.734375 C 80.1875 8.839844 80.40625 8.984375 80.59375 9.171875 L 80.59375 5.921875 Z M 85.074219 8.6875 L 85.074219 14.84375 L 83.589844 14.84375 L 83.589844 8.6875 Z M 85.277344 6.890625 C 85.277344 7.015625 85.25 7.136719 85.199219 7.25 C 85.144531 7.367188 85.078125 7.464844 84.996094 7.546875 C 84.910156 7.632812 84.808594 7.699219 84.683594 7.75 C 84.566406 7.804688 84.449219 7.828125 84.324219 7.828125 C 84.1875 7.828125 84.0625 7.804688 83.949219 7.75 C 83.84375 7.699219 83.746094 7.632812 83.652344 7.546875 C 83.566406 7.464844 83.5 7.367188 83.449219 7.25 C 83.40625 7.136719 83.386719 7.015625 83.386719 6.890625 C 83.386719 6.765625 83.40625 6.648438 83.449219 6.53125 C 83.5 6.40625 83.566406 6.304688 83.652344 6.21875 C 83.746094 6.136719 83.84375 6.074219 83.949219 6.03125 C 84.0625 5.980469 84.1875 5.953125 84.324219 5.953125 C 84.449219 5.953125 84.566406 5.980469 84.683594 6.03125 C 84.808594 6.074219 84.910156 6.136719 84.996094 6.21875 C 85.078125 6.304688 85.144531 6.40625 85.199219 6.53125 C 85.25 6.648438 85.277344 6.765625 85.277344 6.890625 Z M 90.34375 9.890625 C 90.300781 9.953125 90.257812 10 90.21875 10.03125 C 90.175781 10.054688 90.117188 10.0625 90.046875 10.0625 C 89.984375 10.0625 89.910156 10.042969 89.828125 10 C 89.742188 9.960938 89.644531 9.917969 89.53125 9.875 C 89.425781 9.824219 89.304688 9.777344 89.171875 9.734375 C 89.035156 9.695312 88.867188 9.671875 88.671875 9.671875 C 88.378906 9.671875 88.148438 9.734375 87.984375 9.859375 C 87.828125 9.984375 87.75 10.148438 87.75 10.34375 C 87.75 10.480469 87.789062 10.59375 87.875 10.6875 C 87.957031 10.773438 88.066406 10.851562 88.203125 10.921875 C 88.347656 10.984375 88.507812 11.042969 88.6875 11.09375 C 88.875 11.148438 89.0625 11.210938 89.25 11.28125 C 89.4375 11.34375 89.617188 11.417969 89.796875 11.5 C 89.972656 11.574219 90.128906 11.679688 90.265625 11.8125 C 90.410156 11.9375 90.523438 12.089844 90.609375 12.265625 C 90.703125 12.433594 90.75 12.640625 90.75 12.890625 C 90.75 13.195312 90.695312 13.46875 90.59375 13.71875 C 90.488281 13.96875 90.332031 14.1875 90.125 14.375 C 89.914062 14.554688 89.65625 14.695312 89.34375 14.796875 C 89.039062 14.890625 88.691406 14.9375 88.296875 14.9375 C 88.078125 14.9375 87.863281 14.914062 87.65625 14.875 C 87.457031 14.84375 87.265625 14.796875 87.078125 14.734375 C 86.898438 14.664062 86.726562 14.578125 86.5625 14.484375 C 86.40625 14.390625 86.269531 14.292969 86.15625 14.1875 L 86.5 13.625 C 86.539062 13.554688 86.585938 13.5 86.640625 13.46875 C 86.703125 13.429688 86.78125 13.40625 86.875 13.40625 C 86.96875 13.40625 87.054688 13.433594 87.140625 13.484375 C 87.222656 13.539062 87.316406 13.59375 87.421875 13.65625 C 87.535156 13.71875 87.664062 13.777344 87.8125 13.828125 C 87.957031 13.882812 88.140625 13.90625 88.359375 13.90625 C 88.535156 13.90625 88.6875 13.886719 88.8125 13.84375 C 88.9375 13.804688 89.039062 13.75 89.125 13.6875 C 89.207031 13.617188 89.265625 13.53125 89.296875 13.4375 C 89.335938 13.34375 89.359375 13.25 89.359375 13.15625 C 89.359375 13.011719 89.316406 12.898438 89.234375 12.8125 C 89.148438 12.71875 89.035156 12.640625 88.890625 12.578125 C 88.742188 12.507812 88.582031 12.445312 88.40625 12.390625 C 88.226562 12.328125 88.039062 12.265625 87.84375 12.203125 C 87.65625 12.140625 87.46875 12.070312 87.28125 11.984375 C 87.101562 11.890625 86.941406 11.78125 86.796875 11.65625 C 86.660156 11.523438 86.546875 11.359375 86.453125 11.171875 C 86.367188 10.976562 86.328125 10.742188 86.328125 10.46875 C 86.328125 10.21875 86.378906 9.980469 86.484375 9.75 C 86.585938 9.523438 86.734375 9.324219 86.921875 9.15625 C 87.117188 8.980469 87.359375 8.84375 87.640625 8.75 C 87.929688 8.648438 88.269531 8.59375 88.65625 8.59375 C 89.082031 8.59375 89.46875 8.667969 89.8125 8.8125 C 90.15625 8.949219 90.445312 9.132812 90.6875 9.359375 Z M 96.273438 9.984375 C 96.230469 10.046875 96.1875 10.09375 96.148438 10.125 C 96.105469 10.15625 96.042969 10.171875 95.960938 10.171875 C 95.886719 10.171875 95.8125 10.152344 95.742188 10.109375 C 95.667969 10.058594 95.578125 10.007812 95.476562 9.953125 C 95.382812 9.890625 95.261719 9.839844 95.117188 9.796875 C 94.980469 9.746094 94.8125 9.71875 94.617188 9.71875 C 94.355469 9.71875 94.125 9.765625 93.929688 9.859375 C 93.730469 9.953125 93.5625 10.089844 93.429688 10.265625 C 93.304688 10.445312 93.210938 10.65625 93.148438 10.90625 C 93.085938 11.15625 93.054688 11.4375 93.054688 11.75 C 93.054688 12.085938 93.085938 12.382812 93.148438 12.640625 C 93.21875 12.890625 93.324219 13.105469 93.460938 13.28125 C 93.59375 13.449219 93.757812 13.578125 93.945312 13.671875 C 94.132812 13.765625 94.339844 13.8125 94.570312 13.8125 C 94.808594 13.8125 95 13.78125 95.148438 13.71875 C 95.292969 13.65625 95.414062 13.59375 95.507812 13.53125 C 95.609375 13.460938 95.699219 13.398438 95.773438 13.34375 C 95.855469 13.28125 95.9375 13.25 96.023438 13.25 C 96.148438 13.25 96.242188 13.296875 96.304688 13.390625 L 96.726562 13.921875 C 96.558594 14.121094 96.375 14.289062 96.179688 14.421875 C 95.992188 14.546875 95.792969 14.652344 95.585938 14.734375 C 95.386719 14.808594 95.179688 14.859375 94.960938 14.890625 C 94.742188 14.921875 94.523438 14.9375 94.304688 14.9375 C 93.929688 14.9375 93.570312 14.863281 93.226562 14.71875 C 92.890625 14.574219 92.601562 14.367188 92.351562 14.09375 C 92.101562 13.824219 91.902344 13.496094 91.757812 13.109375 C 91.609375 12.714844 91.539062 12.261719 91.539062 11.75 C 91.539062 11.304688 91.601562 10.886719 91.726562 10.5 C 91.859375 10.117188 92.054688 9.78125 92.304688 9.5 C 92.554688 9.21875 92.859375 9 93.226562 8.84375 C 93.601562 8.679688 94.03125 8.59375 94.523438 8.59375 C 94.980469 8.59375 95.382812 8.667969 95.726562 8.8125 C 96.078125 8.960938 96.390625 9.171875 96.664062 9.453125 Z M 100.261719 8.59375 C 100.71875 8.59375 101.136719 8.667969 101.511719 8.8125 C 101.886719 8.960938 102.203125 9.171875 102.464844 9.453125 C 102.734375 9.726562 102.9375 10.058594 103.074219 10.453125 C 103.21875 10.839844 103.292969 11.273438 103.292969 11.75 C 103.292969 12.242188 103.21875 12.683594 103.074219 13.078125 C 102.9375 13.464844 102.734375 13.796875 102.464844 14.078125 C 102.203125 14.351562 101.886719 14.5625 101.511719 14.71875 C 101.136719 14.863281 100.71875 14.9375 100.261719 14.9375 C 99.800781 14.9375 99.386719 14.863281 99.011719 14.71875 C 98.636719 14.5625 98.3125 14.351562 98.042969 14.078125 C 97.78125 13.796875 97.578125 13.464844 97.433594 13.078125 C 97.285156 12.683594 97.214844 12.242188 97.214844 11.75 C 97.214844 11.273438 97.285156 10.839844 97.433594 10.453125 C 97.578125 10.058594 97.78125 9.726562 98.042969 9.453125 C 98.3125 9.171875 98.636719 8.960938 99.011719 8.8125 C 99.386719 8.667969 99.800781 8.59375 100.261719 8.59375 Z M 100.261719 13.796875 C 100.769531 13.796875 101.152344 13.625 101.402344 13.28125 C 101.652344 12.9375 101.777344 12.433594 101.777344 11.765625 C 101.777344 11.101562 101.652344 10.59375 101.402344 10.25 C 101.152344 9.898438 100.769531 9.71875 100.261719 9.71875 C 99.738281 9.71875 99.355469 9.898438 99.105469 10.25 C 98.855469 10.605469 98.730469 11.109375 98.730469 11.765625 C 98.730469 12.421875 98.855469 12.929688 99.105469 13.28125 C 99.355469 13.625 99.738281 13.796875 100.261719 13.796875 Z M 105.828125 9.75 C 106.023438 9.386719 106.253906 9.101562 106.515625 8.890625 C 106.773438 8.683594 107.085938 8.578125 107.453125 8.578125 C 107.734375 8.578125 107.960938 8.640625 108.140625 8.765625 L 108.046875 9.875 C 108.023438 9.949219 107.992188 10 107.953125 10.03125 C 107.910156 10.054688 107.859375 10.0625 107.796875 10.0625 C 107.742188 10.0625 107.65625 10.054688 107.53125 10.03125 C 107.414062 10.011719 107.300781 10 107.1875 10 C 107.019531 10 106.875 10.027344 106.75 10.078125 C 106.625 10.132812 106.507812 10.203125 106.40625 10.296875 C 106.300781 10.382812 106.207031 10.492188 106.125 10.625 C 106.050781 10.75 105.984375 10.890625 105.921875 11.046875 L 105.921875 14.84375 L 104.4375 14.84375 L 104.4375 8.6875 L 105.3125 8.6875 C 105.457031 8.6875 105.5625 8.714844 105.625 8.765625 C 105.6875 8.820312 105.726562 8.917969 105.75 9.0625 Z M 112.609375 10.265625 C 112.441406 10.058594 112.257812 9.914062 112.0625 9.828125 C 111.863281 9.746094 111.648438 9.703125 111.421875 9.703125 C 111.203125 9.703125 111 9.746094 110.8125 9.828125 C 110.632812 9.914062 110.476562 10.042969 110.34375 10.21875 C 110.21875 10.386719 110.117188 10.601562 110.046875 10.859375 C 109.984375 11.121094 109.953125 11.429688 109.953125 11.78125 C 109.953125 12.148438 109.984375 12.453125 110.046875 12.703125 C 110.109375 12.953125 110.191406 13.15625 110.296875 13.3125 C 110.398438 13.46875 110.53125 13.585938 110.6875 13.65625 C 110.84375 13.71875 111.019531 13.75 111.21875 13.75 C 111.519531 13.75 111.78125 13.6875 112 13.5625 C 112.21875 13.4375 112.421875 13.257812 112.609375 13.015625 Z M 114.09375 5.921875 L 114.09375 14.84375 L 113.1875 14.84375 C 112.988281 14.84375 112.863281 14.757812 112.8125 14.578125 L 112.6875 13.984375 C 112.4375 14.265625 112.148438 14.496094 111.828125 14.671875 C 111.515625 14.847656 111.140625 14.9375 110.703125 14.9375 C 110.367188 14.9375 110.0625 14.867188 109.78125 14.734375 C 109.5 14.589844 109.257812 14.386719 109.0625 14.125 C 108.863281 13.855469 108.707031 13.527344 108.59375 13.140625 C 108.476562 12.746094 108.421875 12.292969 108.421875 11.78125 C 108.421875 11.324219 108.484375 10.902344 108.609375 10.515625 C 108.734375 10.121094 108.910156 9.78125 109.140625 9.5 C 109.378906 9.210938 109.660156 8.984375 109.984375 8.828125 C 110.304688 8.664062 110.671875 8.578125 111.078125 8.578125 C 111.421875 8.578125 111.710938 8.632812 111.953125 8.734375 C 112.203125 8.839844 112.421875 8.984375 112.609375 9.171875 L 112.609375 5.921875 Z M 115.34375 14.03125 C 115.34375 13.90625 115.363281 13.789062 115.40625 13.671875 C 115.457031 13.558594 115.519531 13.464844 115.59375 13.390625 C 115.675781 13.308594 115.773438 13.246094 115.890625 13.203125 C 116.003906 13.152344 116.125 13.125 116.25 13.125 C 116.375 13.125 116.488281 13.152344 116.59375 13.203125 C 116.707031 13.246094 116.804688 13.308594 116.890625 13.390625 C 116.972656 13.464844 117.035156 13.558594 117.078125 13.671875 C 117.128906 13.789062 117.15625 13.90625 117.15625 14.03125 C 117.15625 14.15625 117.128906 14.277344 117.078125 14.390625 C 117.035156 14.496094 116.972656 14.589844 116.890625 14.671875 C 116.804688 14.757812 116.707031 14.820312 116.59375 14.859375 C 116.488281 14.898438 116.375 14.921875 116.25 14.921875 C 116.125 14.921875 116.003906 14.898438 115.890625 14.859375 C 115.773438 14.820312 115.675781 14.757812 115.59375 14.671875 C 115.519531 14.589844 115.457031 14.496094 115.40625 14.390625 C 115.363281 14.277344 115.34375 14.15625 115.34375 14.03125 Z M 119.941406 8.6875 L 119.941406 15.046875 C 119.941406 15.316406 119.902344 15.566406 119.832031 15.796875 C 119.769531 16.035156 119.660156 16.242188 119.503906 16.421875 C 119.347656 16.609375 119.144531 16.75 118.894531 16.84375 C 118.644531 16.945312 118.339844 17 117.988281 17 C 117.839844 17 117.710938 16.988281 117.597656 16.96875 C 117.472656 16.957031 117.347656 16.929688 117.222656 16.890625 L 117.269531 16.09375 C 117.28125 16.007812 117.3125 15.957031 117.363281 15.9375 C 117.417969 15.914062 117.519531 15.90625 117.675781 15.90625 C 117.820312 15.90625 117.941406 15.890625 118.035156 15.859375 C 118.136719 15.828125 118.222656 15.78125 118.285156 15.71875 C 118.347656 15.65625 118.386719 15.566406 118.410156 15.453125 C 118.441406 15.347656 118.457031 15.210938 118.457031 15.046875 L 118.457031 8.6875 Z M 120.144531 6.890625 C 120.144531 7.015625 120.117188 7.136719 120.066406 7.25 C 120.011719 7.367188 119.945312 7.464844 119.863281 7.546875 C 119.777344 7.632812 119.675781 7.699219 119.550781 7.75 C 119.433594 7.804688 119.308594 7.828125 119.175781 7.828125 C 119.050781 7.828125 118.929688 7.804688 118.816406 7.75 C 118.710938 7.699219 118.613281 7.632812 118.519531 7.546875 C 118.433594 7.464844 118.367188 7.367188 118.316406 7.25 C 118.273438 7.136719 118.253906 7.015625 118.253906 6.890625 C 118.253906 6.765625 118.273438 6.648438 118.316406 6.53125 C 118.367188 6.40625 118.433594 6.304688 118.519531 6.21875 C 118.613281 6.136719 118.710938 6.074219 118.816406 6.03125 C 118.929688 5.980469 119.050781 5.953125 119.175781 5.953125 C 119.308594 5.953125 119.433594 5.980469 119.550781 6.03125 C 119.675781 6.074219 119.777344 6.136719 119.863281 6.21875 C 119.945312 6.304688 120.011719 6.40625 120.066406 6.53125 C 120.117188 6.648438 120.144531 6.765625 120.144531 6.890625 Z M 125.210938 9.890625 C 125.167969 9.953125 125.125 10 125.085938 10.03125 C 125.042969 10.054688 124.984375 10.0625 124.914062 10.0625 C 124.851562 10.0625 124.777344 10.042969 124.695312 10 C 124.609375 9.960938 124.511719 9.917969 124.398438 9.875 C 124.292969 9.824219 124.171875 9.777344 124.039062 9.734375 C 123.902344 9.695312 123.734375 9.671875 123.539062 9.671875 C 123.246094 9.671875 123.015625 9.734375 122.851562 9.859375 C 122.695312 9.984375 122.617188 10.148438 122.617188 10.34375 C 122.617188 10.480469 122.65625 10.59375 122.742188 10.6875 C 122.824219 10.773438 122.933594 10.851562 123.070312 10.921875 C 123.214844 10.984375 123.375 11.042969 123.554688 11.09375 C 123.742188 11.148438 123.929688 11.210938 124.117188 11.28125 C 124.304688 11.34375 124.484375 11.417969 124.664062 11.5 C 124.839844 11.574219 124.996094 11.679688 125.132812 11.8125 C 125.277344 11.9375 125.390625 12.089844 125.476562 12.265625 C 125.570312 12.433594 125.617188 12.640625 125.617188 12.890625 C 125.617188 13.195312 125.5625 13.46875 125.460938 13.71875 C 125.355469 13.96875 125.199219 14.1875 124.992188 14.375 C 124.78125 14.554688 124.523438 14.695312 124.210938 14.796875 C 123.90625 14.890625 123.558594 14.9375 123.164062 14.9375 C 122.945312 14.9375 122.730469 14.914062 122.523438 14.875 C 122.324219 14.84375 122.132812 14.796875 121.945312 14.734375 C 121.765625 14.664062 121.59375 14.578125 121.429688 14.484375 C 121.273438 14.390625 121.136719 14.292969 121.023438 14.1875 L 121.367188 13.625 C 121.40625 13.554688 121.453125 13.5 121.507812 13.46875 C 121.570312 13.429688 121.648438 13.40625 121.742188 13.40625 C 121.835938 13.40625 121.921875 13.433594 122.007812 13.484375 C 122.089844 13.539062 122.183594 13.59375 122.289062 13.65625 C 122.402344 13.71875 122.53125 13.777344 122.679688 13.828125 C 122.824219 13.882812 123.007812 13.90625 123.226562 13.90625 C 123.402344 13.90625 123.554688 13.886719 123.679688 13.84375 C 123.804688 13.804688 123.90625 13.75 123.992188 13.6875 C 124.074219 13.617188 124.132812 13.53125 124.164062 13.4375 C 124.203125 13.34375 124.226562 13.25 124.226562 13.15625 C 124.226562 13.011719 124.183594 12.898438 124.101562 12.8125 C 124.015625 12.71875 123.902344 12.640625 123.757812 12.578125 C 123.609375 12.507812 123.449219 12.445312 123.273438 12.390625 C 123.09375 12.328125 122.90625 12.265625 122.710938 12.203125 C 122.523438 12.140625 122.335938 12.070312 122.148438 11.984375 C 121.96875 11.890625 121.808594 11.78125 121.664062 11.65625 C 121.527344 11.523438 121.414062 11.359375 121.320312 11.171875 C 121.234375 10.976562 121.195312 10.742188 121.195312 10.46875 C 121.195312 10.21875 121.246094 9.980469 121.351562 9.75 C 121.453125 9.523438 121.601562 9.324219 121.789062 9.15625 C 121.984375 8.980469 122.226562 8.84375 122.507812 8.75 C 122.796875 8.648438 123.136719 8.59375 123.523438 8.59375 C 123.949219 8.59375 124.335938 8.667969 124.679688 8.8125 C 125.023438 8.949219 125.3125 9.132812 125.554688 9.359375 Z M 76 3 "/>
</g>
</svg>
