<?xml version="1.0" encoding="UTF-8"?>
<svg xmlns="http://www.w3.org/2000/svg" xmlns:xlink="http://www.w3.org/1999/xlink" width="199px" height="20px" viewBox="0 0 199 20" version="1.1">
<g id="surface10">
<path style=" stroke:none;fill-rule:nonzero;fill:rgb(13.72549%,15.294118%,16.470588%);fill-opacity:1;" d="M 4 0 L 20 0 L 20 20 L 4 20 C 1.332031 20 0 18.667969 0 16 L 0 4 C 0 1.332031 1.332031 0 4 0 Z M 4 0 "/>
<path style=" stroke:none;fill-rule:nonzero;fill:rgb(20.784314%,21.960784%,23.921569%);fill-opacity:1;" d="M 19 0 L 66 0 L 66 20 L 19 20 Z M 19 0 "/>
<path style=" stroke:none;fill-rule:nonzero;fill:rgb(22.745098%,24.313725%,25.882353%);fill-opacity:1;" d="M 65 0 L 195.125 0 C 197.792969 0 199.125 1.332031 199.125 4 L 199.125 16 C 199.125 18.667969 197.792969 20 195.125 20 L 65 20 Z M 65 0 "/>
<path style=" stroke:none;fill-rule:nonzero;fill:rgb(20.784314%,21.960784%,23.921569%);fill-opacity:1;" d="M 4 0 L 20 0 L 20 20 L 4 20 C 1.332031 20 0 18.667969 0 16 L 0 4 C 0 1.332031 1.332031 0 4 0 Z M 4 0 "/>
<path style=" stroke:none;fill-rule:nonzero;fill:rgb(78.823529%,78.823529%,78.823529%);fill-opacity:1;" d="M 19.414062 8.59375 C 19.871094 8.59375 20.289062 8.667969 20.664062 8.8125 C 21.039062 8.960938 21.355469 9.171875 21.617188 9.453125 C 21.886719 9.726562 22.089844 10.058594 22.226562 10.453125 C 22.371094 10.839844 22.445312 11.273438 22.445312 11.75 C 22.445312 12.242188 22.371094 12.683594 22.226562 13.078125 C 22.089844 13.464844 21.886719 13.796875 21.617188 14.078125 C 21.355469 14.351562 21.039062 14.5625 20.664062 14.71875 C 20.289062 14.863281 19.871094 14.9375 19.414062 14.9375 C 18.953125 14.9375 18.539062 14.863281 18.164062 14.71875 C 17.789062 14.5625 17.464844 14.351562 17.195312 14.078125 C 16.933594 13.796875 16.730469 13.464844 16.585938 13.078125 C 16.4375 12.683594 16.367188 12.242188 16.367188 11.75 C 16.367188 11.273438 16.4375 10.839844 16.585938 10.453125 C 16.730469 10.058594 16.933594 9.726562 17.195312 9.453125 C 17.464844 9.171875 17.789062 8.960938 18.164062 8.8125 C 18.539062 8.667969 18.953125 8.59375 19.414062 8.59375 Z M 19.414062 13.796875 C 19.921875 13.796875 20.304688 13.625 20.554688 13.28125 C 20.804688 12.9375 20.929688 12.433594 20.929688 11.765625 C 20.929688 11.101562 20.804688 10.59375 20.554688 10.25 C 20.304688 9.898438 19.921875 9.71875 19.414062 9.71875 C 18.890625 9.71875 18.507812 9.898438 18.257812 10.25 C 18.007812 10.605469 17.882812 11.109375 17.882812 11.765625 C 17.882812 12.421875 18.007812 12.929688 18.257812 13.28125 C 18.507812 13.625 18.890625 13.796875 19.414062 13.796875 Z M 32.269531 8.6875 L 30.316406 14.84375 L 29.128906 14.84375 C 28.992188 14.84375 28.898438 14.757812 28.847656 14.578125 L 27.738281 11.015625 C 27.707031 10.902344 27.675781 10.789062 27.644531 10.671875 C 27.613281 10.546875 27.585938 10.429688 27.566406 10.3125 C 27.542969 10.429688 27.519531 10.546875 27.488281 10.671875 C 27.457031 10.796875 27.425781 10.917969 27.394531 11.03125 L 26.269531 14.578125 C 26.214844 14.757812 26.113281 14.84375 25.957031 14.84375 L 24.816406 14.84375 L 22.863281 8.6875 L 24.050781 8.6875 C 24.152344 8.6875 24.242188 8.714844 24.316406 8.765625 C 24.398438 8.820312 24.449219 8.886719 24.472656 8.96875 L 25.347656 12.25 C 25.386719 12.429688 25.425781 12.605469 25.457031 12.78125 C 25.496094 12.949219 25.527344 13.121094 25.550781 13.296875 C 25.601562 13.121094 25.648438 12.949219 25.691406 12.78125 C 25.742188 12.605469 25.800781 12.429688 25.863281 12.25 L 26.878906 8.953125 C 26.898438 8.871094 26.945312 8.804688 27.019531 8.75 C 27.089844 8.699219 27.175781 8.671875 27.269531 8.671875 L 27.925781 8.671875 C 28.027344 8.671875 28.117188 8.699219 28.191406 8.75 C 28.261719 8.804688 28.316406 8.871094 28.347656 8.953125 L 29.332031 12.25 C 29.382812 12.429688 29.429688 12.605469 29.472656 12.78125 C 29.523438 12.960938 29.570312 13.132812 29.613281 13.296875 C 29.664062 12.964844 29.738281 12.617188 29.832031 12.25 L 30.738281 8.96875 C 30.769531 8.886719 30.820312 8.820312 30.894531 8.765625 C 30.964844 8.714844 31.050781 8.6875 31.144531 8.6875 Z M 34.507812 9.4375 C 34.621094 9.3125 34.746094 9.199219 34.882812 9.09375 C 35.027344 8.992188 35.179688 8.902344 35.335938 8.828125 C 35.492188 8.757812 35.652344 8.699219 35.820312 8.65625 C 35.996094 8.617188 36.1875 8.59375 36.398438 8.59375 C 36.742188 8.59375 37.039062 8.652344 37.289062 8.765625 C 37.546875 8.882812 37.765625 9.042969 37.945312 9.25 C 38.121094 9.449219 38.25 9.695312 38.335938 9.984375 C 38.429688 10.265625 38.476562 10.578125 38.476562 10.921875 L 38.476562 14.84375 L 36.992188 14.84375 L 36.992188 10.921875 C 36.992188 10.546875 36.902344 10.261719 36.726562 10.0625 C 36.558594 9.855469 36.296875 9.75 35.945312 9.75 C 35.695312 9.75 35.453125 9.808594 35.226562 9.921875 C 35.007812 10.039062 34.796875 10.195312 34.601562 10.390625 L 34.601562 14.84375 L 33.117188 14.84375 L 33.117188 8.6875 L 34.023438 8.6875 C 34.210938 8.6875 34.335938 8.777344 34.398438 8.953125 Z M 43.855469 11.0625 C 43.855469 10.867188 43.824219 10.683594 43.761719 10.515625 C 43.707031 10.351562 43.628906 10.203125 43.527344 10.078125 C 43.421875 9.945312 43.285156 9.839844 43.121094 9.765625 C 42.953125 9.695312 42.761719 9.65625 42.542969 9.65625 C 42.105469 9.65625 41.761719 9.78125 41.511719 10.03125 C 41.269531 10.273438 41.121094 10.617188 41.058594 11.0625 Z M 41.027344 11.953125 C 41.046875 12.265625 41.097656 12.539062 41.183594 12.765625 C 41.277344 12.996094 41.394531 13.1875 41.542969 13.34375 C 41.6875 13.492188 41.859375 13.601562 42.058594 13.671875 C 42.253906 13.746094 42.472656 13.78125 42.714844 13.78125 C 42.953125 13.78125 43.15625 13.757812 43.324219 13.703125 C 43.5 13.652344 43.652344 13.59375 43.777344 13.53125 C 43.910156 13.460938 44.027344 13.398438 44.121094 13.34375 C 44.222656 13.28125 44.324219 13.25 44.417969 13.25 C 44.542969 13.25 44.628906 13.296875 44.683594 13.390625 L 45.121094 13.921875 C 44.953125 14.121094 44.765625 14.289062 44.558594 14.421875 C 44.359375 14.546875 44.144531 14.652344 43.917969 14.734375 C 43.699219 14.808594 43.472656 14.859375 43.246094 14.890625 C 43.015625 14.921875 42.792969 14.9375 42.574219 14.9375 C 42.144531 14.9375 41.75 14.863281 41.386719 14.71875 C 41.019531 14.574219 40.699219 14.367188 40.417969 14.09375 C 40.144531 13.8125 39.933594 13.46875 39.777344 13.0625 C 39.621094 12.648438 39.542969 12.171875 39.542969 11.640625 C 39.542969 11.214844 39.609375 10.820312 39.746094 10.453125 C 39.878906 10.078125 40.074219 9.757812 40.324219 9.484375 C 40.582031 9.214844 40.894531 9 41.261719 8.84375 C 41.625 8.679688 42.042969 8.59375 42.511719 8.59375 C 42.894531 8.59375 43.25 8.65625 43.574219 8.78125 C 43.90625 8.90625 44.1875 9.089844 44.417969 9.328125 C 44.65625 9.558594 44.84375 9.851562 44.980469 10.203125 C 45.113281 10.546875 45.183594 10.9375 45.183594 11.375 C 45.183594 11.605469 45.15625 11.761719 45.105469 11.84375 C 45.0625 11.917969 44.972656 11.953125 44.839844 11.953125 Z M 47.683594 9.75 C 47.878906 9.386719 48.109375 9.101562 48.371094 8.890625 C 48.628906 8.683594 48.941406 8.578125 49.308594 8.578125 C 49.589844 8.578125 49.816406 8.640625 49.996094 8.765625 L 49.902344 9.875 C 49.878906 9.949219 49.847656 10 49.808594 10.03125 C 49.765625 10.054688 49.714844 10.0625 49.652344 10.0625 C 49.597656 10.0625 49.511719 10.054688 49.386719 10.03125 C 49.269531 10.011719 49.15625 10 49.042969 10 C 48.875 10 48.730469 10.027344 48.605469 10.078125 C 48.480469 10.132812 48.363281 10.203125 48.261719 10.296875 C 48.15625 10.382812 48.0625 10.492188 47.980469 10.625 C 47.90625 10.75 47.839844 10.890625 47.777344 11.046875 L 47.777344 14.84375 L 46.292969 14.84375 L 46.292969 8.6875 L 47.167969 8.6875 C 47.3125 8.6875 47.417969 8.714844 47.480469 8.765625 C 47.542969 8.820312 47.582031 8.917969 47.605469 9.0625 Z M 15.960938 3 "/>
<path style=" stroke:none;fill-rule:nonzero;fill:rgb(78.823529%,78.823529%,78.823529%);fill-opacity:1;" d="M 82.9375 6.765625 C 82.9375 6.945312 82.882812 7.109375 82.78125 7.265625 L 78.328125 13.546875 L 82.84375 13.546875 L 82.84375 14.84375 L 76.234375 14.84375 L 76.234375 14.203125 C 76.234375 14.132812 76.25 14.058594 76.28125 13.984375 C 76.3125 13.902344 76.347656 13.828125 76.390625 13.765625 L 80.859375 7.453125 L 76.515625 7.453125 L 76.515625 6.171875 L 82.9375 6.171875 Z M 85.519531 8.6875 L 85.519531 14.84375 L 84.035156 14.84375 L 84.035156 8.6875 Z M 85.722656 6.890625 C 85.722656 7.015625 85.695312 7.136719 85.644531 7.25 C 85.589844 7.367188 85.523438 7.464844 85.441406 7.546875 C 85.355469 7.632812 85.253906 7.699219 85.128906 7.75 C 85.011719 7.804688 84.894531 7.828125 84.769531 7.828125 C 84.632812 7.828125 84.507812 7.804688 84.394531 7.75 C 84.289062 7.699219 84.191406 7.632812 84.097656 7.546875 C 84.011719 7.464844 83.945312 7.367188 83.894531 7.25 C 83.851562 7.136719 83.832031 7.015625 83.832031 6.890625 C 83.832031 6.765625 83.851562 6.648438 83.894531 6.53125 C 83.945312 6.40625 84.011719 6.304688 84.097656 6.21875 C 84.191406 6.136719 84.289062 6.074219 84.394531 6.03125 C 84.507812 5.980469 84.632812 5.953125 84.769531 5.953125 C 84.894531 5.953125 85.011719 5.980469 85.128906 6.03125 C 85.253906 6.074219 85.355469 6.136719 85.441406 6.21875 C 85.523438 6.304688 85.589844 6.40625 85.644531 6.53125 C 85.695312 6.648438 85.722656 6.765625 85.722656 6.890625 Z M 88.519531 13.25 C 88.683594 13.449219 88.867188 13.59375 89.066406 13.6875 C 89.261719 13.773438 89.476562 13.8125 89.707031 13.8125 C 89.933594 13.8125 90.136719 13.773438 90.316406 13.6875 C 90.492188 13.59375 90.644531 13.464844 90.769531 13.296875 C 90.894531 13.121094 90.988281 12.902344 91.050781 12.640625 C 91.121094 12.382812 91.160156 12.074219 91.160156 11.71875 C 91.160156 11.355469 91.128906 11.046875 91.066406 10.796875 C 91.011719 10.546875 90.933594 10.34375 90.832031 10.1875 C 90.726562 10.03125 90.597656 9.921875 90.441406 9.859375 C 90.285156 9.789062 90.105469 9.75 89.910156 9.75 C 89.605469 9.75 89.347656 9.820312 89.128906 9.953125 C 88.910156 10.078125 88.707031 10.257812 88.519531 10.484375 Z M 88.441406 9.53125 C 88.691406 9.25 88.972656 9.023438 89.285156 8.84375 C 89.605469 8.667969 89.988281 8.578125 90.425781 8.578125 C 90.757812 8.578125 91.058594 8.652344 91.332031 8.796875 C 91.613281 8.933594 91.851562 9.136719 92.050781 9.40625 C 92.257812 9.667969 92.414062 9.996094 92.519531 10.390625 C 92.632812 10.777344 92.691406 11.21875 92.691406 11.71875 C 92.691406 12.179688 92.628906 12.605469 92.503906 13 C 92.386719 13.386719 92.210938 13.726562 91.972656 14.015625 C 91.742188 14.308594 91.464844 14.539062 91.144531 14.703125 C 90.820312 14.859375 90.457031 14.9375 90.050781 14.9375 C 89.707031 14.9375 89.410156 14.882812 89.160156 14.78125 C 88.917969 14.667969 88.707031 14.515625 88.519531 14.328125 L 88.519531 16.859375 L 87.035156 16.859375 L 87.035156 8.6875 L 87.941406 8.6875 C 88.128906 8.6875 88.253906 8.777344 88.316406 8.953125 Z M 95.335938 13.25 C 95.5 13.449219 95.683594 13.59375 95.882812 13.6875 C 96.078125 13.773438 96.292969 13.8125 96.523438 13.8125 C 96.75 13.8125 96.953125 13.773438 97.132812 13.6875 C 97.308594 13.59375 97.460938 13.464844 97.585938 13.296875 C 97.710938 13.121094 97.804688 12.902344 97.867188 12.640625 C 97.9375 12.382812 97.976562 12.074219 97.976562 11.71875 C 97.976562 11.355469 97.945312 11.046875 97.882812 10.796875 C 97.828125 10.546875 97.75 10.34375 97.648438 10.1875 C 97.542969 10.03125 97.414062 9.921875 97.257812 9.859375 C 97.101562 9.789062 96.921875 9.75 96.726562 9.75 C 96.421875 9.75 96.164062 9.820312 95.945312 9.953125 C 95.726562 10.078125 95.523438 10.257812 95.335938 10.484375 Z M 95.257812 9.53125 C 95.507812 9.25 95.789062 9.023438 96.101562 8.84375 C 96.421875 8.667969 96.804688 8.578125 97.242188 8.578125 C 97.574219 8.578125 97.875 8.652344 98.148438 8.796875 C 98.429688 8.933594 98.667969 9.136719 98.867188 9.40625 C 99.074219 9.667969 99.230469 9.996094 99.335938 10.390625 C 99.449219 10.777344 99.507812 11.21875 99.507812 11.71875 C 99.507812 12.179688 99.445312 12.605469 99.320312 13 C 99.203125 13.386719 99.027344 13.726562 98.789062 14.015625 C 98.558594 14.308594 98.28125 14.539062 97.960938 14.703125 C 97.636719 14.859375 97.273438 14.9375 96.867188 14.9375 C 96.523438 14.9375 96.226562 14.882812 95.976562 14.78125 C 95.734375 14.667969 95.523438 14.515625 95.335938 14.328125 L 95.335938 16.859375 L 93.851562 16.859375 L 93.851562 8.6875 L 94.757812 8.6875 C 94.945312 8.6875 95.070312 8.777344 95.132812 8.953125 Z M 106.089844 8.6875 L 102.730469 16.53125 C 102.6875 16.632812 102.628906 16.710938 102.558594 16.765625 C 102.484375 16.828125 102.378906 16.859375 102.246094 16.859375 L 101.136719 16.859375 L 102.292969 14.375 L 99.792969 8.6875 L 101.105469 8.6875 C 101.21875 8.6875 101.308594 8.71875 101.371094 8.78125 C 101.433594 8.835938 101.484375 8.898438 101.527344 8.96875 L 102.824219 12.15625 C 102.863281 12.261719 102.902344 12.371094 102.933594 12.484375 C 102.964844 12.589844 102.996094 12.699219 103.027344 12.8125 C 103.058594 12.699219 103.089844 12.589844 103.121094 12.484375 C 103.160156 12.371094 103.203125 12.261719 103.246094 12.15625 L 104.496094 8.96875 C 104.527344 8.886719 104.578125 8.820312 104.652344 8.765625 C 104.722656 8.714844 104.808594 8.6875 104.902344 8.6875 Z M 116.351562 6.171875 L 116.351562 14.84375 L 114.929688 14.84375 L 114.929688 9.234375 C 114.929688 9.015625 114.9375 8.777344 114.960938 8.515625 L 112.335938 13.4375 C 112.21875 13.679688 112.03125 13.796875 111.773438 13.796875 L 111.539062 13.796875 C 111.289062 13.796875 111.101562 13.679688 110.976562 13.4375 L 108.320312 8.5 C 108.328125 8.625 108.339844 8.757812 108.351562 8.890625 C 108.359375 9.015625 108.367188 9.132812 108.367188 9.234375 L 108.367188 14.84375 L 106.945312 14.84375 L 106.945312 6.171875 L 108.164062 6.171875 C 108.234375 6.171875 108.296875 6.179688 108.351562 6.1875 C 108.402344 6.1875 108.449219 6.199219 108.492188 6.21875 C 108.53125 6.230469 108.570312 6.25 108.601562 6.28125 C 108.632812 6.3125 108.664062 6.359375 108.695312 6.421875 L 111.304688 11.25 C 111.367188 11.375 111.421875 11.507812 111.476562 11.640625 C 111.539062 11.777344 111.601562 11.917969 111.664062 12.0625 C 111.714844 11.917969 111.773438 11.777344 111.835938 11.640625 C 111.898438 11.496094 111.960938 11.359375 112.023438 11.234375 L 114.585938 6.421875 C 114.617188 6.359375 114.648438 6.3125 114.679688 6.28125 C 114.71875 6.25 114.761719 6.230469 114.804688 6.21875 C 114.84375 6.199219 114.890625 6.1875 114.945312 6.1875 C 114.996094 6.179688 115.058594 6.171875 115.132812 6.171875 Z M 121.148438 12.21875 C 120.71875 12.242188 120.359375 12.277344 120.070312 12.328125 C 119.777344 12.382812 119.542969 12.449219 119.367188 12.53125 C 119.1875 12.617188 119.058594 12.714844 118.976562 12.828125 C 118.902344 12.945312 118.867188 13.0625 118.867188 13.1875 C 118.867188 13.449219 118.945312 13.636719 119.101562 13.75 C 119.257812 13.867188 119.460938 13.921875 119.710938 13.921875 C 120.011719 13.921875 120.273438 13.871094 120.492188 13.765625 C 120.71875 13.652344 120.9375 13.480469 121.148438 13.25 Z M 117.757812 9.546875 C 118.464844 8.902344 119.3125 8.578125 120.304688 8.578125 C 120.667969 8.578125 120.992188 8.636719 121.273438 8.75 C 121.554688 8.867188 121.792969 9.03125 121.992188 9.25 C 122.1875 9.460938 122.339844 9.710938 122.445312 10 C 122.546875 10.292969 122.601562 10.609375 122.601562 10.953125 L 122.601562 14.84375 L 121.929688 14.84375 C 121.78125 14.84375 121.667969 14.824219 121.585938 14.78125 C 121.511719 14.742188 121.453125 14.65625 121.414062 14.53125 L 121.289062 14.078125 C 121.132812 14.226562 120.976562 14.351562 120.820312 14.453125 C 120.671875 14.558594 120.523438 14.648438 120.367188 14.71875 C 120.210938 14.792969 120.039062 14.84375 119.851562 14.875 C 119.671875 14.914062 119.476562 14.9375 119.257812 14.9375 C 118.996094 14.9375 118.75 14.90625 118.523438 14.84375 C 118.304688 14.773438 118.117188 14.667969 117.960938 14.53125 C 117.804688 14.386719 117.679688 14.210938 117.585938 14 C 117.5 13.792969 117.460938 13.546875 117.460938 13.265625 C 117.460938 13.109375 117.484375 12.960938 117.539062 12.8125 C 117.589844 12.65625 117.671875 12.511719 117.789062 12.375 C 117.902344 12.230469 118.054688 12.09375 118.242188 11.96875 C 118.4375 11.84375 118.671875 11.734375 118.945312 11.640625 C 119.214844 11.546875 119.53125 11.476562 119.898438 11.421875 C 120.261719 11.359375 120.679688 11.324219 121.148438 11.3125 L 121.148438 10.953125 C 121.148438 10.546875 121.058594 10.246094 120.882812 10.046875 C 120.703125 9.851562 120.449219 9.75 120.117188 9.75 C 119.875 9.75 119.679688 9.777344 119.523438 9.828125 C 119.367188 9.882812 119.226562 9.945312 119.101562 10.015625 C 118.984375 10.089844 118.875 10.15625 118.773438 10.21875 C 118.679688 10.273438 118.574219 10.296875 118.460938 10.296875 C 118.355469 10.296875 118.265625 10.273438 118.195312 10.21875 C 118.121094 10.15625 118.0625 10.089844 118.023438 10.015625 Z M 126.234375 11.609375 C 126.421875 11.609375 126.582031 11.589844 126.71875 11.546875 C 126.851562 11.496094 126.960938 11.429688 127.046875 11.34375 C 127.140625 11.25 127.207031 11.140625 127.25 11.015625 C 127.300781 10.890625 127.328125 10.757812 127.328125 10.609375 C 127.328125 10.308594 127.234375 10.070312 127.046875 9.890625 C 126.867188 9.714844 126.597656 9.625 126.234375 9.625 C 125.867188 9.625 125.59375 9.714844 125.40625 9.890625 C 125.226562 10.070312 125.140625 10.308594 125.140625 10.609375 C 125.140625 10.757812 125.160156 10.890625 125.203125 11.015625 C 125.253906 11.140625 125.320312 11.25 125.40625 11.34375 C 125.5 11.429688 125.613281 11.496094 125.75 11.546875 C 125.894531 11.589844 126.054688 11.609375 126.234375 11.609375 Z M 127.90625 15.125 C 127.90625 15 127.867188 14.898438 127.796875 14.828125 C 127.722656 14.757812 127.625 14.699219 127.5 14.65625 C 127.375 14.605469 127.226562 14.574219 127.0625 14.5625 C 126.894531 14.542969 126.71875 14.527344 126.53125 14.515625 C 126.351562 14.507812 126.164062 14.496094 125.96875 14.484375 C 125.769531 14.476562 125.578125 14.460938 125.390625 14.4375 C 125.222656 14.53125 125.085938 14.640625 124.984375 14.765625 C 124.878906 14.890625 124.828125 15.03125 124.828125 15.1875 C 124.828125 15.300781 124.851562 15.40625 124.90625 15.5 C 124.96875 15.59375 125.054688 15.671875 125.171875 15.734375 C 125.285156 15.804688 125.4375 15.859375 125.625 15.890625 C 125.8125 15.929688 126.046875 15.953125 126.328125 15.953125 C 126.597656 15.953125 126.832031 15.929688 127.03125 15.890625 C 127.238281 15.847656 127.40625 15.789062 127.53125 15.71875 C 127.65625 15.644531 127.75 15.554688 127.8125 15.453125 C 127.875 15.347656 127.90625 15.238281 127.90625 15.125 Z M 129.375 8.890625 L 129.375 9.453125 C 129.375 9.632812 129.269531 9.742188 129.0625 9.78125 L 128.515625 9.875 C 128.597656 10.085938 128.640625 10.320312 128.640625 10.578125 C 128.640625 10.882812 128.578125 11.15625 128.453125 11.40625 C 128.328125 11.648438 128.15625 11.855469 127.9375 12.03125 C 127.726562 12.199219 127.472656 12.328125 127.171875 12.421875 C 126.878906 12.515625 126.566406 12.5625 126.234375 12.5625 C 126.109375 12.5625 125.988281 12.558594 125.875 12.546875 C 125.769531 12.539062 125.660156 12.523438 125.546875 12.5 C 125.359375 12.617188 125.265625 12.746094 125.265625 12.890625 C 125.265625 13.015625 125.320312 13.109375 125.4375 13.171875 C 125.550781 13.226562 125.703125 13.261719 125.890625 13.28125 C 126.078125 13.304688 126.289062 13.320312 126.53125 13.328125 C 126.769531 13.339844 127.015625 13.355469 127.265625 13.375 C 127.515625 13.386719 127.757812 13.417969 128 13.46875 C 128.25 13.523438 128.46875 13.605469 128.65625 13.71875 C 128.84375 13.824219 128.992188 13.96875 129.109375 14.15625 C 129.222656 14.34375 129.28125 14.585938 129.28125 14.875 C 129.28125 15.144531 129.210938 15.40625 129.078125 15.65625 C 128.941406 15.914062 128.742188 16.144531 128.484375 16.34375 C 128.234375 16.539062 127.921875 16.703125 127.546875 16.828125 C 127.179688 16.953125 126.765625 17.015625 126.296875 17.015625 C 125.828125 17.015625 125.421875 16.96875 125.078125 16.875 C 124.734375 16.78125 124.445312 16.660156 124.21875 16.515625 C 123.988281 16.367188 123.816406 16.195312 123.703125 16 C 123.597656 15.800781 123.546875 15.597656 123.546875 15.390625 C 123.546875 15.097656 123.628906 14.859375 123.796875 14.671875 C 123.972656 14.476562 124.210938 14.320312 124.515625 14.203125 C 124.359375 14.109375 124.226562 13.996094 124.125 13.859375 C 124.03125 13.726562 123.984375 13.542969 123.984375 13.3125 C 123.984375 13.21875 124 13.125 124.03125 13.03125 C 124.070312 12.929688 124.125 12.828125 124.1875 12.734375 C 124.25 12.640625 124.332031 12.554688 124.4375 12.46875 C 124.539062 12.375 124.660156 12.296875 124.796875 12.234375 C 124.484375 12.058594 124.238281 11.835938 124.0625 11.5625 C 123.882812 11.28125 123.796875 10.953125 123.796875 10.578125 C 123.796875 10.265625 123.851562 9.992188 123.96875 9.75 C 124.09375 9.5 124.265625 9.292969 124.484375 9.125 C 124.703125 8.949219 124.957031 8.8125 125.25 8.71875 C 125.550781 8.625 125.878906 8.578125 126.234375 8.578125 C 126.492188 8.578125 126.738281 8.605469 126.96875 8.65625 C 127.207031 8.710938 127.421875 8.789062 127.609375 8.890625 Z M 131.851562 8.6875 L 131.851562 14.84375 L 130.367188 14.84375 L 130.367188 8.6875 Z M 132.054688 6.890625 C 132.054688 7.015625 132.027344 7.136719 131.976562 7.25 C 131.921875 7.367188 131.855469 7.464844 131.773438 7.546875 C 131.6875 7.632812 131.585938 7.699219 131.460938 7.75 C 131.34375 7.804688 131.226562 7.828125 131.101562 7.828125 C 130.964844 7.828125 130.839844 7.804688 130.726562 7.75 C 130.621094 7.699219 130.523438 7.632812 130.429688 7.546875 C 130.34375 7.464844 130.277344 7.367188 130.226562 7.25 C 130.183594 7.136719 130.164062 7.015625 130.164062 6.890625 C 130.164062 6.765625 130.183594 6.648438 130.226562 6.53125 C 130.277344 6.40625 130.34375 6.304688 130.429688 6.21875 C 130.523438 6.136719 130.621094 6.074219 130.726562 6.03125 C 130.839844 5.980469 130.964844 5.953125 131.101562 5.953125 C 131.226562 5.953125 131.34375 5.980469 131.460938 6.03125 C 131.585938 6.074219 131.6875 6.136719 131.773438 6.21875 C 131.855469 6.304688 131.921875 6.40625 131.976562 6.53125 C 132.027344 6.648438 132.054688 6.765625 132.054688 6.890625 Z M 137.777344 9.984375 C 137.734375 10.046875 137.691406 10.09375 137.652344 10.125 C 137.609375 10.15625 137.546875 10.171875 137.464844 10.171875 C 137.390625 10.171875 137.316406 10.152344 137.246094 10.109375 C 137.171875 10.058594 137.082031 10.007812 136.980469 9.953125 C 136.886719 9.890625 136.765625 9.839844 136.621094 9.796875 C 136.484375 9.746094 136.316406 9.71875 136.121094 9.71875 C 135.859375 9.71875 135.628906 9.765625 135.433594 9.859375 C 135.234375 9.953125 135.066406 10.089844 134.933594 10.265625 C 134.808594 10.445312 134.714844 10.65625 134.652344 10.90625 C 134.589844 11.15625 134.558594 11.4375 134.558594 11.75 C 134.558594 12.085938 134.589844 12.382812 134.652344 12.640625 C 134.722656 12.890625 134.828125 13.105469 134.964844 13.28125 C 135.097656 13.449219 135.261719 13.578125 135.449219 13.671875 C 135.636719 13.765625 135.84375 13.8125 136.074219 13.8125 C 136.3125 13.8125 136.503906 13.78125 136.652344 13.71875 C 136.796875 13.65625 136.917969 13.59375 137.011719 13.53125 C 137.113281 13.460938 137.203125 13.398438 137.277344 13.34375 C 137.359375 13.28125 137.441406 13.25 137.527344 13.25 C 137.652344 13.25 137.746094 13.296875 137.808594 13.390625 L 138.230469 13.921875 C 138.0625 14.121094 137.878906 14.289062 137.683594 14.421875 C 137.496094 14.546875 137.296875 14.652344 137.089844 14.734375 C 136.890625 14.808594 136.683594 14.859375 136.464844 14.890625 C 136.246094 14.921875 136.027344 14.9375 135.808594 14.9375 C 135.433594 14.9375 135.074219 14.863281 134.730469 14.71875 C 134.394531 14.574219 134.105469 14.367188 133.855469 14.09375 C 133.605469 13.824219 133.40625 13.496094 133.261719 13.109375 C 133.113281 12.714844 133.042969 12.261719 133.042969 11.75 C 133.042969 11.304688 133.105469 10.886719 133.230469 10.5 C 133.363281 10.117188 133.558594 9.78125 133.808594 9.5 C 134.058594 9.21875 134.363281 9 134.730469 8.84375 C 135.105469 8.679688 135.535156 8.59375 136.027344 8.59375 C 136.484375 8.59375 136.886719 8.667969 137.230469 8.8125 C 137.582031 8.960938 137.894531 9.171875 138.167969 9.453125 Z M 140.6875 8.6875 L 140.6875 14.84375 L 139.203125 14.84375 L 139.203125 8.6875 Z M 140.890625 6.890625 C 140.890625 7.015625 140.863281 7.136719 140.8125 7.25 C 140.757812 7.367188 140.691406 7.464844 140.609375 7.546875 C 140.523438 7.632812 140.421875 7.699219 140.296875 7.75 C 140.179688 7.804688 140.0625 7.828125 139.9375 7.828125 C 139.800781 7.828125 139.675781 7.804688 139.5625 7.75 C 139.457031 7.699219 139.359375 7.632812 139.265625 7.546875 C 139.179688 7.464844 139.113281 7.367188 139.0625 7.25 C 139.019531 7.136719 139 7.015625 139 6.890625 C 139 6.765625 139.019531 6.648438 139.0625 6.53125 C 139.113281 6.40625 139.179688 6.304688 139.265625 6.21875 C 139.359375 6.136719 139.457031 6.074219 139.5625 6.03125 C 139.675781 5.980469 139.800781 5.953125 139.9375 5.953125 C 140.0625 5.953125 140.179688 5.980469 140.296875 6.03125 C 140.421875 6.074219 140.523438 6.136719 140.609375 6.21875 C 140.691406 6.304688 140.757812 6.40625 140.8125 6.53125 C 140.863281 6.648438 140.890625 6.765625 140.890625 6.890625 Z M 145.453125 12.21875 C 145.023438 12.242188 144.664062 12.277344 144.375 12.328125 C 144.082031 12.382812 143.847656 12.449219 143.671875 12.53125 C 143.492188 12.617188 143.363281 12.714844 143.28125 12.828125 C 143.207031 12.945312 143.171875 13.0625 143.171875 13.1875 C 143.171875 13.449219 143.25 13.636719 143.40625 13.75 C 143.5625 13.867188 143.765625 13.921875 144.015625 13.921875 C 144.316406 13.921875 144.578125 13.871094 144.796875 13.765625 C 145.023438 13.652344 145.242188 13.480469 145.453125 13.25 Z M 142.0625 9.546875 C 142.769531 8.902344 143.617188 8.578125 144.609375 8.578125 C 144.972656 8.578125 145.296875 8.636719 145.578125 8.75 C 145.859375 8.867188 146.097656 9.03125 146.296875 9.25 C 146.492188 9.460938 146.644531 9.710938 146.75 10 C 146.851562 10.292969 146.90625 10.609375 146.90625 10.953125 L 146.90625 14.84375 L 146.234375 14.84375 C 146.085938 14.84375 145.972656 14.824219 145.890625 14.78125 C 145.816406 14.742188 145.757812 14.65625 145.71875 14.53125 L 145.59375 14.078125 C 145.4375 14.226562 145.28125 14.351562 145.125 14.453125 C 144.976562 14.558594 144.828125 14.648438 144.671875 14.71875 C 144.515625 14.792969 144.34375 14.84375 144.15625 14.875 C 143.976562 14.914062 143.78125 14.9375 143.5625 14.9375 C 143.300781 14.9375 143.054688 14.90625 142.828125 14.84375 C 142.609375 14.773438 142.421875 14.667969 142.265625 14.53125 C 142.109375 14.386719 141.984375 14.210938 141.890625 14 C 141.804688 13.792969 141.765625 13.546875 141.765625 13.265625 C 141.765625 13.109375 141.789062 12.960938 141.84375 12.8125 C 141.894531 12.65625 141.976562 12.511719 142.09375 12.375 C 142.207031 12.230469 142.359375 12.09375 142.546875 11.96875 C 142.742188 11.84375 142.976562 11.734375 143.25 11.640625 C 143.519531 11.546875 143.835938 11.476562 144.203125 11.421875 C 144.566406 11.359375 144.984375 11.324219 145.453125 11.3125 L 145.453125 10.953125 C 145.453125 10.546875 145.363281 10.246094 145.1875 10.046875 C 145.007812 9.851562 144.753906 9.75 144.421875 9.75 C 144.179688 9.75 143.984375 9.777344 143.828125 9.828125 C 143.671875 9.882812 143.53125 9.945312 143.40625 10.015625 C 143.289062 10.089844 143.179688 10.15625 143.078125 10.21875 C 142.984375 10.273438 142.878906 10.296875 142.765625 10.296875 C 142.660156 10.296875 142.570312 10.273438 142.5 10.21875 C 142.425781 10.15625 142.367188 10.089844 142.328125 10.015625 Z M 149.683594 9.4375 C 149.796875 9.3125 149.921875 9.199219 150.058594 9.09375 C 150.203125 8.992188 150.355469 8.902344 150.511719 8.828125 C 150.667969 8.757812 150.828125 8.699219 150.996094 8.65625 C 151.171875 8.617188 151.363281 8.59375 151.574219 8.59375 C 151.917969 8.59375 152.214844 8.652344 152.464844 8.765625 C 152.722656 8.882812 152.941406 9.042969 153.121094 9.25 C 153.296875 9.449219 153.425781 9.695312 153.511719 9.984375 C 153.605469 10.265625 153.652344 10.578125 153.652344 10.921875 L 153.652344 14.84375 L 152.167969 14.84375 L 152.167969 10.921875 C 152.167969 10.546875 152.078125 10.261719 151.902344 10.0625 C 151.734375 9.855469 151.472656 9.75 151.121094 9.75 C 150.871094 9.75 150.628906 9.808594 150.402344 9.921875 C 150.183594 10.039062 149.972656 10.195312 149.777344 10.390625 L 149.777344 14.84375 L 148.292969 14.84375 L 148.292969 8.6875 L 149.199219 8.6875 C 149.386719 8.6875 149.511719 8.777344 149.574219 8.953125 Z M 158.527344 9.671875 L 157.292969 9.671875 L 156.996094 11.328125 L 158.230469 11.328125 Z M 161.105469 8.609375 L 160.996094 9.21875 C 160.964844 9.375 160.902344 9.492188 160.808594 9.5625 C 160.714844 9.636719 160.5625 9.671875 160.355469 9.671875 L 159.746094 9.671875 L 159.449219 11.328125 L 160.292969 11.328125 C 160.4375 11.328125 160.542969 11.375 160.605469 11.46875 C 160.675781 11.554688 160.699219 11.703125 160.667969 11.921875 L 160.589844 12.390625 L 159.292969 12.390625 L 158.824219 14.84375 L 158.152344 14.84375 C 158.078125 14.84375 158.011719 14.828125 157.949219 14.796875 C 157.894531 14.765625 157.847656 14.726562 157.808594 14.671875 C 157.765625 14.609375 157.734375 14.542969 157.714844 14.46875 C 157.691406 14.398438 157.691406 14.320312 157.714844 14.234375 L 158.074219 12.390625 L 156.839844 12.390625 L 156.496094 14.296875 C 156.464844 14.496094 156.378906 14.636719 156.246094 14.71875 C 156.121094 14.804688 155.980469 14.84375 155.824219 14.84375 L 155.167969 14.84375 L 155.621094 12.390625 L 154.933594 12.390625 C 154.777344 12.390625 154.667969 12.351562 154.605469 12.265625 C 154.542969 12.171875 154.527344 12.015625 154.558594 11.796875 L 154.636719 11.328125 L 155.777344 11.328125 L 156.089844 9.671875 L 154.792969 9.671875 L 154.917969 9.046875 C 154.949219 8.902344 155.011719 8.792969 155.105469 8.71875 C 155.199219 8.648438 155.347656 8.609375 155.558594 8.609375 L 156.230469 8.609375 L 156.605469 6.671875 C 156.636719 6.515625 156.707031 6.398438 156.824219 6.3125 C 156.9375 6.21875 157.074219 6.171875 157.230469 6.171875 L 157.917969 6.171875 L 157.449219 8.609375 L 158.683594 8.609375 L 159.136719 6.171875 L 159.808594 6.171875 C 159.953125 6.171875 160.074219 6.226562 160.167969 6.328125 C 160.261719 6.421875 160.296875 6.542969 160.277344 6.6875 L 159.902344 8.609375 Z M 164.410156 9.3125 L 164.113281 9.6875 C 164.277344 9.605469 164.460938 9.542969 164.660156 9.5 C 164.855469 9.449219 165.066406 9.421875 165.285156 9.421875 C 165.617188 9.421875 165.933594 9.480469 166.238281 9.59375 C 166.550781 9.699219 166.820312 9.859375 167.050781 10.078125 C 167.289062 10.296875 167.480469 10.570312 167.628906 10.890625 C 167.773438 11.214844 167.847656 11.59375 167.847656 12.03125 C 167.847656 12.429688 167.773438 12.804688 167.628906 13.15625 C 167.480469 13.511719 167.273438 13.824219 167.003906 14.09375 C 166.730469 14.355469 166.410156 14.5625 166.035156 14.71875 C 165.660156 14.863281 165.242188 14.9375 164.785156 14.9375 C 164.316406 14.9375 163.898438 14.863281 163.535156 14.71875 C 163.167969 14.574219 162.855469 14.371094 162.597656 14.109375 C 162.335938 13.839844 162.132812 13.515625 161.988281 13.140625 C 161.851562 12.765625 161.785156 12.351562 161.785156 11.890625 C 161.785156 11.484375 161.867188 11.070312 162.035156 10.640625 C 162.199219 10.203125 162.460938 9.757812 162.816406 9.296875 L 164.878906 6.515625 C 164.949219 6.421875 165.054688 6.34375 165.191406 6.28125 C 165.324219 6.210938 165.488281 6.171875 165.675781 6.171875 L 166.988281 6.171875 Z M 164.753906 13.734375 C 164.992188 13.734375 165.210938 13.695312 165.410156 13.609375 C 165.605469 13.527344 165.773438 13.417969 165.910156 13.28125 C 166.054688 13.136719 166.164062 12.964844 166.238281 12.765625 C 166.320312 12.570312 166.363281 12.355469 166.363281 12.125 C 166.363281 11.886719 166.324219 11.667969 166.253906 11.46875 C 166.179688 11.273438 166.070312 11.105469 165.925781 10.96875 C 165.789062 10.824219 165.621094 10.714844 165.425781 10.640625 C 165.226562 10.570312 165.007812 10.53125 164.769531 10.53125 C 164.539062 10.53125 164.324219 10.574219 164.128906 10.65625 C 163.941406 10.742188 163.777344 10.855469 163.644531 11 C 163.507812 11.136719 163.398438 11.304688 163.316406 11.5 C 163.242188 11.6875 163.207031 11.898438 163.207031 12.125 C 163.207031 12.367188 163.238281 12.585938 163.300781 12.78125 C 163.371094 12.980469 163.472656 13.152344 163.597656 13.296875 C 163.730469 13.433594 163.894531 13.542969 164.082031 13.625 C 164.277344 13.699219 164.503906 13.734375 164.753906 13.734375 Z M 174.136719 13.46875 C 174.292969 13.46875 174.417969 13.515625 174.511719 13.609375 C 174.605469 13.695312 174.652344 13.808594 174.652344 13.953125 L 174.652344 14.84375 L 168.699219 14.84375 L 168.699219 14.359375 C 168.699219 14.257812 168.71875 14.152344 168.761719 14.046875 C 168.800781 13.933594 168.871094 13.828125 168.964844 13.734375 L 171.605469 11.09375 C 171.824219 10.875 172.015625 10.667969 172.183594 10.46875 C 172.359375 10.261719 172.503906 10.058594 172.621094 9.859375 C 172.734375 9.652344 172.824219 9.449219 172.886719 9.25 C 172.949219 9.042969 172.980469 8.824219 172.980469 8.59375 C 172.980469 8.386719 172.949219 8.203125 172.886719 8.046875 C 172.832031 7.890625 172.75 7.761719 172.636719 7.65625 C 172.53125 7.542969 172.402344 7.460938 172.246094 7.40625 C 172.089844 7.34375 171.917969 7.3125 171.730469 7.3125 C 171.550781 7.3125 171.386719 7.339844 171.230469 7.390625 C 171.082031 7.445312 170.953125 7.515625 170.839844 7.609375 C 170.722656 7.695312 170.625 7.796875 170.542969 7.921875 C 170.457031 8.039062 170.402344 8.167969 170.371094 8.3125 C 170.296875 8.5 170.203125 8.625 170.089844 8.6875 C 169.984375 8.742188 169.832031 8.75 169.636719 8.71875 L 168.855469 8.578125 C 168.917969 8.171875 169.03125 7.8125 169.199219 7.5 C 169.375 7.179688 169.589844 6.914062 169.839844 6.703125 C 170.097656 6.496094 170.394531 6.339844 170.730469 6.234375 C 171.0625 6.132812 171.421875 6.078125 171.808594 6.078125 C 172.203125 6.078125 172.566406 6.136719 172.902344 6.25 C 173.234375 6.367188 173.519531 6.53125 173.761719 6.75 C 174 6.96875 174.183594 7.230469 174.308594 7.53125 C 174.441406 7.835938 174.511719 8.171875 174.511719 8.546875 C 174.511719 8.871094 174.464844 9.167969 174.371094 9.4375 C 174.277344 9.710938 174.152344 9.96875 173.996094 10.21875 C 173.839844 10.460938 173.652344 10.699219 173.433594 10.9375 C 173.222656 11.167969 173.003906 11.402344 172.777344 11.640625 L 170.808594 13.640625 C 170.996094 13.578125 171.183594 13.539062 171.371094 13.515625 C 171.558594 13.484375 171.734375 13.46875 171.902344 13.46875 Z M 178.6875 13.78125 C 178.925781 13.78125 179.132812 13.75 179.3125 13.6875 C 179.5 13.617188 179.65625 13.515625 179.78125 13.390625 C 179.914062 13.265625 180.015625 13.121094 180.078125 12.953125 C 180.140625 12.777344 180.171875 12.589844 180.171875 12.390625 C 180.171875 11.914062 180.035156 11.554688 179.765625 11.3125 C 179.503906 11.0625 179.144531 10.9375 178.6875 10.9375 C 178.21875 10.9375 177.847656 11.0625 177.578125 11.3125 C 177.316406 11.554688 177.1875 11.914062 177.1875 12.390625 C 177.1875 12.589844 177.21875 12.777344 177.28125 12.953125 C 177.351562 13.121094 177.453125 13.265625 177.578125 13.390625 C 177.703125 13.515625 177.851562 13.617188 178.03125 13.6875 C 178.21875 13.75 178.4375 13.78125 178.6875 13.78125 Z M 178.6875 7.1875 C 178.46875 7.1875 178.273438 7.226562 178.109375 7.296875 C 177.953125 7.359375 177.820312 7.449219 177.71875 7.5625 C 177.613281 7.679688 177.535156 7.808594 177.484375 7.953125 C 177.429688 8.101562 177.40625 8.257812 177.40625 8.421875 C 177.40625 8.601562 177.425781 8.773438 177.46875 8.9375 C 177.507812 9.09375 177.578125 9.234375 177.671875 9.359375 C 177.773438 9.484375 177.910156 9.589844 178.078125 9.671875 C 178.242188 9.746094 178.445312 9.78125 178.6875 9.78125 C 178.925781 9.78125 179.125 9.746094 179.28125 9.671875 C 179.445312 9.589844 179.578125 9.484375 179.671875 9.359375 C 179.773438 9.234375 179.847656 9.09375 179.890625 8.9375 C 179.941406 8.773438 179.96875 8.601562 179.96875 8.421875 C 179.96875 8.257812 179.941406 8.101562 179.890625 7.953125 C 179.835938 7.808594 179.757812 7.679688 179.65625 7.5625 C 179.550781 7.449219 179.414062 7.359375 179.25 7.296875 C 179.09375 7.226562 178.90625 7.1875 178.6875 7.1875 Z M 180.140625 10.3125 C 180.671875 10.492188 181.0625 10.757812 181.3125 11.109375 C 181.5625 11.464844 181.6875 11.898438 181.6875 12.40625 C 181.6875 12.792969 181.613281 13.140625 181.46875 13.453125 C 181.320312 13.765625 181.117188 14.03125 180.859375 14.25 C 180.597656 14.46875 180.28125 14.640625 179.90625 14.765625 C 179.539062 14.878906 179.132812 14.9375 178.6875 14.9375 C 178.238281 14.9375 177.828125 14.878906 177.453125 14.765625 C 177.085938 14.640625 176.769531 14.46875 176.5 14.25 C 176.238281 14.03125 176.035156 13.765625 175.890625 13.453125 C 175.742188 13.140625 175.671875 12.792969 175.671875 12.40625 C 175.671875 11.898438 175.796875 11.464844 176.046875 11.109375 C 176.296875 10.757812 176.6875 10.492188 177.21875 10.3125 C 176.800781 10.148438 176.484375 9.902344 176.265625 9.578125 C 176.054688 9.246094 175.953125 8.855469 175.953125 8.40625 C 175.953125 8.074219 176.019531 7.765625 176.15625 7.484375 C 176.289062 7.203125 176.476562 6.960938 176.71875 6.75 C 176.957031 6.53125 177.242188 6.367188 177.578125 6.25 C 177.910156 6.136719 178.28125 6.078125 178.6875 6.078125 C 179.082031 6.078125 179.445312 6.136719 179.78125 6.25 C 180.113281 6.367188 180.398438 6.53125 180.640625 6.75 C 180.878906 6.960938 181.066406 7.203125 181.203125 7.484375 C 181.335938 7.765625 181.40625 8.074219 181.40625 8.40625 C 181.40625 8.855469 181.300781 9.246094 181.09375 9.578125 C 180.882812 9.902344 180.566406 10.148438 180.140625 10.3125 Z M 188.820312 10.5 C 188.820312 11.261719 188.734375 11.921875 188.570312 12.484375 C 188.414062 13.039062 188.1875 13.496094 187.898438 13.859375 C 187.617188 14.226562 187.277344 14.496094 186.882812 14.671875 C 186.496094 14.847656 186.078125 14.9375 185.632812 14.9375 C 185.183594 14.9375 184.761719 14.847656 184.367188 14.671875 C 183.980469 14.496094 183.648438 14.226562 183.367188 13.859375 C 183.085938 13.496094 182.859375 13.039062 182.695312 12.484375 C 182.539062 11.921875 182.460938 11.261719 182.460938 10.5 C 182.460938 9.742188 182.539062 9.085938 182.695312 8.53125 C 182.859375 7.980469 183.085938 7.523438 183.367188 7.15625 C 183.648438 6.792969 183.980469 6.523438 184.367188 6.34375 C 184.761719 6.167969 185.183594 6.078125 185.632812 6.078125 C 186.078125 6.078125 186.496094 6.167969 186.882812 6.34375 C 187.277344 6.523438 187.617188 6.792969 187.898438 7.15625 C 188.1875 7.523438 188.414062 7.980469 188.570312 8.53125 C 188.734375 9.085938 188.820312 9.742188 188.820312 10.5 Z M 187.289062 10.5 C 187.289062 9.875 187.242188 9.359375 187.148438 8.953125 C 187.0625 8.539062 186.945312 8.210938 186.789062 7.96875 C 186.632812 7.71875 186.453125 7.546875 186.257812 7.453125 C 186.058594 7.351562 185.851562 7.296875 185.632812 7.296875 C 185.421875 7.296875 185.21875 7.351562 185.023438 7.453125 C 184.824219 7.546875 184.648438 7.71875 184.492188 7.96875 C 184.335938 8.210938 184.210938 8.539062 184.117188 8.953125 C 184.03125 9.359375 183.992188 9.875 183.992188 10.5 C 183.992188 11.136719 184.03125 11.664062 184.117188 12.078125 C 184.210938 12.484375 184.335938 12.8125 184.492188 13.0625 C 184.648438 13.304688 184.824219 13.46875 185.023438 13.5625 C 185.21875 13.65625 185.421875 13.703125 185.632812 13.703125 C 185.851562 13.703125 186.058594 13.65625 186.257812 13.5625 C 186.453125 13.46875 186.632812 13.304688 186.789062 13.0625 C 186.945312 12.8125 187.0625 12.484375 187.148438 12.078125 C 187.242188 11.664062 187.289062 11.136719 187.289062 10.5 Z M 76 3 "/>
</g>
</svg>
